<mxfile host="app.diagrams.net" modified="2023-12-30T06:07:57.769Z" agent="Mozilla/5.0 (X11; Ubuntu; Linux x86_64; rv:120.0) Gecko/20100101 Firefox/120.0" version="22.1.15" etag="P45ZT7yq4l3NegD3vxv5" type="github">
  <diagram name="第 1 页" id="gSjT_mLDi7wDcZGD6s1C">
    <mxGraphModel>
      <root>
        <mxCell id="0" />
        <mxCell id="1" parent="0" />
      </root>
    </mxGraphModel>
  </diagram>
</mxfile>
